<svg xmlns="http://www.w3.org/2000/svg" xmlns:xlink="http://www.w3.org/1999/xlink" width="50" zoomAndPan="magnify" viewBox="0 0 37.5 37.499999" height="50" preserveAspectRatio="xMidYMid meet" version="1.0"><defs><g/></defs><g fill="#434be7" fill-opacity="1"><g transform="translate(0.00112335, 26.679658)"><g><path d="M 0.703125 -7.328125 L 4.359375 -10.40625 L 13.109375 -14.3125 L 13.40625 -13.640625 L 10.140625 -10.9375 L 6.578125 -9.09375 C 8.003906 -8.675781 9.269531 -8.101562 10.375 -7.375 C 11.476562 -6.644531 12.488281 -5.816406 13.40625 -4.890625 L 9.765625 -1.71875 C 9.285156 -2.28125 8.65625 -2.832031 7.875 -3.375 C 7.101562 -3.914062 6.285156 -4.410156 5.421875 -4.859375 C 4.554688 -5.304688 3.734375 -5.65625 2.953125 -5.90625 C 2.179688 -6.15625 1.535156 -6.269531 1.015625 -6.25 Z M 0.703125 -7.328125 "/></g></g></g><g fill="#000000" fill-opacity="1"><g transform="translate(14.102942, 26.679658)"><g/></g></g><g fill="#434be7" fill-opacity="1"><g transform="translate(22.826086, 26.679658)"><g><path d="M 13.40625 -8.84375 L 9.734375 -5.75 L 0.984375 -1.859375 L 0.703125 -2.53125 L 3.953125 -5.234375 L 7.53125 -7.0625 C 6.113281 -7.488281 4.847656 -8.066406 3.734375 -8.796875 C 2.617188 -9.523438 1.609375 -10.351562 0.703125 -11.28125 L 4.328125 -14.453125 C 4.835938 -13.890625 5.472656 -13.335938 6.234375 -12.796875 C 7.003906 -12.253906 7.816406 -11.757812 8.671875 -11.3125 C 9.535156 -10.863281 10.351562 -10.515625 11.125 -10.265625 C 11.90625 -10.015625 12.554688 -9.898438 13.078125 -9.921875 Z M 13.40625 -8.84375 "/></g></g></g><g fill="#434be7" fill-opacity="1"><g transform="translate(13.331911, 31.728368)"><g><path d="M 8.28125 -18.828125 L 11.4375 -21.59375 L 11.875 -21.25 L 4.65625 -2.734375 L 1.59375 0 L 1.0625 -0.296875 Z M 8.28125 -18.828125 "/></g></g></g></svg>